<?xml version="1.0" encoding="UTF-8"?>
<svg width="258px" height="42px" viewBox="0 0 258 42" version="1.1" xmlns="http://www.w3.org/2000/svg" xmlns:xlink="http://www.w3.org/1999/xlink">
    <!-- Generator: Sketch 52.6 (67491) - http://www.bohemiancoding.com/sketch -->
    <title>H&amp;g Logo (1)</title>
    <desc>Created with Sketch.</desc>
    <g id="Page-1" stroke="none" stroke-width="1" fill="none" fill-rule="evenodd">
        <g id="H&amp;g-Logo-(1)" fill="#F37920">
            <path d="M4.66,0.37 L0.85,0.37 L0.85,33.14 L4.66,33.14 L4.66,22.77 C4.66,19.61 6.7,14.16 10.02,13.16 C10.37,13.05 10.74,13 11.11,13 C12.58,13 13.69,13.65 14.42,14.93 C15.08,16.11 15.32,17.67 15.32,19.01 L15.32,33.14 L19.04,33.14 L19.04,19 C19.04,17.65 18.7,16.19 18.06,14.99 C16.65,12.38 14.03,11.39 11.18,11.39 C8.69,11.39 6.49,12.89 5.16,14.93 L4.67,15.69 L4.67,0.37 L4.66,0.37 Z M98.6,0.37 L94.79,0.37 L94.79,33.14 L98.6,33.14 L98.6,22.77 C98.6,19.61 100.64,14.16 103.96,13.16 C104.31,13.05 104.68,13 105.05,13 C106.52,13 107.63,13.65 108.36,14.93 C109.02,16.11 109.26,17.67 109.26,19.01 L109.26,33.14 L112.98,33.14 L112.98,19 C112.98,17.65 112.64,16.19 112,15 C110.59,12.39 107.97,11.4 105.12,11.4 C102.63,11.4 100.43,12.9 99.1,14.94 L98.61,15.7 L98.61,0.37 L98.6,0.37 Z M155.42,18 L152.74,18 L152.75,18.25 C152.76,18.56 152.73,18.87 152.7,19.18 C152.63,19.93 152.51,20.68 152.34,21.41 C151.87,23.42 151,25.34 149.66,26.92 L149.43,27.2 L141.18,14.38 L141.43,14.24 C144.26,12.69 147.53,10.36 147.77,6.84 C147.82,6.16 147.76,5.44 147.62,4.78 C147.4,3.72 146.95,2.72 146.2,1.93 C144.95,0.6 143.21,0.15 141.44,0.15 L141.43,0.15 L141.42,0.15 C140.98,0.12 140.51,0.16 140.08,0.22 C139.1,0.35 138.13,0.66 137.29,1.17 C135.11,2.49 134.37,4.75 134.37,7.2 C134.37,8.74 134.7,10.21 135.3,11.63 C135.74,12.67 136.32,13.63 136.93,14.57 L137.09,14.82 L136.82,14.95 C136.77,14.97 136.73,15 136.68,15.02 C135.93,15.4 135.19,15.78 134.48,16.22 C133.53,16.8 132.61,17.45 131.79,18.2 C129.84,19.97 128.54,22.17 128.54,24.86 C128.54,26.98 129.13,28.99 130.67,30.51 C132.95,32.77 136.61,33.27 139.67,33.27 C142.38,33.27 144.95,32.6 147.29,31.25 L147.47,31.14 L147.62,31.29 C148.9,32.63 150.53,33.5 152.41,33.54 L152.57,33.54 C152.59,33.54 152.6,33.54 152.62,33.54 L152.63,33.54 L152.74,33.54 C153.18,33.54 153.6,33.49 154.03,33.37 L154.04,33.37 L154.05,33.37 C155.94,32.93 157.4,31.82 158.45,30.2 L158.56,30.03 L157.56,29.04 L157.39,29.26 C157.23,29.46 157.05,29.65 156.88,29.84 C156.51,30.23 156.1,30.6 155.67,30.92 C155.39,31.12 155.08,31.31 154.76,31.44 C154.64,31.49 154.52,31.53 154.4,31.56 C154.15,31.63 153.9,31.62 153.65,31.57 C152.49,31.31 151.3,29.94 150.63,29 L150.5,28.82 L150.66,28.66 C150.8,28.52 150.94,28.37 151.08,28.22 C153.48,25.63 155.46,21.84 155.46,18.25 L155.46,18 L155.42,18 Z M139.32,11.5 C138.5,10.17 138,8.51 138,6.94 C138,5.55 138.2,3.78 139.2,2.73 C139.76,2.14 140.5,1.86 141.32,1.86 C141.42,1.86 141.51,1.86 141.61,1.87 C141.65,1.87 141.69,1.87 141.72,1.87 C143.01,1.87 143.82,2.62 144.28,3.78 C144.63,4.64 144.76,5.67 144.76,6.6 C144.76,7.37 144.55,8.12 144.22,8.81 C143.71,9.87 142.91,10.82 142.05,11.62 C141.59,12.05 141.1,12.46 140.58,12.82 L140.37,12.96 L140.21,12.76 C139.89,12.38 139.62,11.94 139.32,11.5 Z M137.93,16.18 L146.31,29.56 L146.04,29.69 C143.97,30.68 141.65,31.04 139.37,31.04 C139,31.04 138.61,30.98 138.24,30.91 C137.46,30.76 136.7,30.48 136.01,30.09 C133.68,28.74 132.86,26.34 132.86,23.76 C132.86,21.82 133.39,20.15 134.7,18.69 C135.55,17.74 136.62,17 137.7,16.33 L137.93,16.18 Z M84.9,3.98 L81.09,6.6 L81.09,11.81 L77.48,11.81 L77.48,13.63 L81.09,13.63 L81.09,25.44 C81.09,27.88 81.65,30.5 83.71,32.04 C84.8,32.85 86.19,33.24 87.54,33.24 C88.07,33.24 89.26,33.17 89.67,32.81 L89.75,32.74 L89.75,30.86 C89.52,31.07 89.25,31.24 88.94,31.35 C88.57,31.48 88.24,31.51 87.86,31.52 C87.12,31.54 86.42,31.3 85.9,30.77 C85.42,30.27 85.15,29.58 85.01,28.91 C84.94,28.56 84.88,28.16 84.89,27.8 L84.89,13.63 L90.86,13.63 L90.86,11.81 L84.9,11.81 L84.9,3.98 Z M47.78,13.56 C47.77,14.92 47.77,16.28 47.78,17.63 C47.96,17.24 48.15,16.86 48.36,16.5 C48.72,15.87 49.14,15.28 49.67,14.79 C50.86,13.7 52.4,13.34 53.97,13.2 L53.98,13.2 L53.99,13.2 C54.03,13.2 54.08,13.19 54.12,13.19 C54.24,13.18 54.36,13.18 54.47,13.18 C55.18,13.18 55.96,13.3 56.6,13.61 C57.5,14.05 57.97,14.78 58.03,15.78 L58.03,15.79 L58.03,17.03 L57.97,17.1 C57.68,17.45 57.3,17.85 56.92,18.1 C56.14,18.61 55.35,19.1 54.5,19.49 C53.63,19.88 52.75,20.23 51.85,20.54 C49.9,21.23 47.5,22.29 46.21,23.97 C45.39,25.04 45.17,26.14 45.17,27.46 C45.17,28.82 45.58,30.19 46.45,31.25 C47.48,32.51 49.01,33.1 50.58,33.32 C50.72,33.34 50.86,33.36 51,33.37 L51.15,33.38 C51.24,33.39 51.34,33.4 51.43,33.4 C51.72,33.42 52.01,33.43 52.29,33.43 L52.37,33.43 C52.68,33.43 52.99,33.41 53.3,33.38 C54.81,33.22 56.21,32.67 57.37,31.67 C57.91,31.21 58.4,30.64 58.78,30.04 L59.05,29.6 L59.25,30.08 C59.94,31.72 61.2,32.93 63.06,32.93 C63.22,32.93 63.39,32.92 63.55,32.9 C63.67,32.89 63.78,32.86 63.89,32.84 C63.94,32.83 63.99,32.82 64.04,32.8 L64.09,32.78 C64.09,32.78 64.09,32.78 64.1,32.78 L64.11,32.78 L64.12,32.78 C64.12,32.78 64.13,32.78 64.13,32.78 C64.47,32.67 64.91,32.46 65.17,32.21 L65.34,32.05 L64.47,31.01 L64.35,30.86 C64.05,31.18 63.8,31.25 63.23,31.25 C63.23,31.25 63.23,31.25 63.23,31.25 C62.96,31.25 62.76,31.19 62.55,31.01 C62.1,30.62 61.9,29.85 61.8,29.28 L61.8,29.27 L61.8,29.26 C61.76,28.9 61.75,28.55 61.75,28.19 L61.75,16.75 L61.75,16.74 C61.78,16.38 61.73,15.96 61.65,15.61 C61.47,14.78 61.08,14.02 60.51,13.4 C59.03,11.79 56.67,11.39 54.58,11.39 C52.9,11.39 51.22,11.71 49.68,12.4 C49.22,12.6 48.78,12.84 48.36,13.11 C48.19,13.22 48.01,13.34 47.85,13.47 L47.78,13.56 Z M49.02,27.11 C49.02,27.04 49.03,26.97 49.03,26.89 L49.04,26.71 C49.27,24.57 51.11,23.18 52.91,22.29 C53.47,22.01 54.03,21.75 54.6,21.49 L54.96,21.32 C55.97,20.86 56.99,20.38 57.87,19.69 L58.3,19.35 L58.3,26.48 L58.29,26.53 C57.71,29.03 56.23,31.47 53.39,31.59 C53.3,31.59 53.21,31.6 53.13,31.6 C50.89,31.6 49.42,30.32 49.08,28.11 C49.03,27.82 49.01,27.52 49.01,27.23 L49.02,27.11 Z M170.71,35.03 L170.71,38.85 L170.76,38.92 C170.9,39.09 171.06,39.25 171.23,39.4 C171.64,39.78 172.09,40.11 172.57,40.41 C174.17,41.39 175.99,41.86 177.85,41.86 C184.94,41.86 188.88,37.96 188.88,30.86 L188.88,11.76 L185.39,11.76 L185.39,14.54 L184.91,13.97 C183.4,12.15 181.34,11.4 179.02,11.4 C177.85,11.4 176.7,11.63 175.61,12.07 C173.63,12.86 171.96,14.3 170.79,16.07 C169.55,17.95 168.88,20.16 168.88,22.41 C168.88,24.48 169.37,26.54 170.37,28.36 C171.3,30.03 172.64,31.45 174.31,32.4 C175.75,33.22 177.36,33.64 179.02,33.64 C180.51,33.64 182,33.37 183.26,32.54 C183.9,32.12 184.44,31.59 184.91,30.97 L185.39,30.33 L185.39,31.68 C185.39,34.46 184.32,37.28 181.93,38.86 C180.78,39.62 179.45,39.99 178.07,39.99 C176.11,39.99 174.35,39.26 172.9,37.96 C172.29,37.41 171.79,36.84 171.35,36.14 C171.12,35.8 170.91,35.42 170.71,35.03 Z M179.02,13.15 C183.33,13.15 184.6,17.99 184.79,21.46 C184.81,21.81 184.82,22.17 184.82,22.52 C184.82,25.34 184.19,29.37 181.7,31.09 C180.9,31.64 180,31.89 179.03,31.89 C176.43,31.89 174.99,30.07 174.23,27.78 C173.68,26.13 173.47,24.25 173.47,22.52 C173.47,19.71 174.08,15.5 176.63,13.84 C177.35,13.37 178.16,13.15 179.02,13.15 Z M248.21,33.14 L248.76,33.14 L257.15,11.74 L255.25,11.74 L249.29,27.11 L242.27,11.88 L242.2,11.74 L240.72,11.74 L233.87,26.83 L228.06,11.74 L224.24,11.74 L232.58,33.14 L233.13,33.14 L240.68,16.66 L248.21,33.14 Z M212.82,11.4 C211.27,11.4 209.76,11.78 208.39,12.5 C204.76,14.42 202.67,18.35 202.67,22.4 C202.67,26.01 204.15,29.53 207.15,31.64 C208.82,32.82 210.78,33.41 212.82,33.41 C215,33.41 217.09,32.77 218.84,31.45 C221.67,29.31 222.97,25.89 222.97,22.41 C222.97,18.81 221.49,15.29 218.49,13.18 C216.82,11.99 214.86,11.4 212.82,11.4 Z M212.82,13.15 C213.64,13.15 214.43,13.32 215.16,13.7 C216.42,14.36 217.26,15.53 217.79,16.81 C218.51,18.54 218.73,20.54 218.73,22.4 C218.73,24.26 218.51,26.26 217.79,27.99 C217.25,29.28 216.42,30.45 215.16,31.11 C214.43,31.49 213.64,31.66 212.82,31.66 C208.49,31.66 207.14,27.01 206.94,23.47 C206.92,23.12 206.91,22.76 206.91,22.4 C206.91,19.99 207.29,17.16 208.8,15.2 C209.79,13.92 211.18,13.15 212.82,13.15 Z M42.26,22.35 L42.26,22.1 C42.26,21.94 42.25,21.77 42.24,21.61 C42.21,21.2 42.16,20.79 42.1,20.39 C41.91,19.14 41.58,17.89 41.07,16.72 C39.59,13.3 36.93,11.4 33.17,11.4 C29.59,11.4 26.58,12.73 24.84,15.97 C23.8,17.9 23.35,20.28 23.35,22.46 C23.35,24.77 23.84,27.22 25.07,29.19 C27.06,32.37 30.42,33.46 34.02,33.46 C35.81,33.46 37.53,32.98 39.03,32 C39.48,31.7 39.91,31.37 40.3,30.99 C40.45,30.84 40.61,30.68 40.74,30.51 L40.79,30.44 L40.79,26.54 C40.05,27.92 39.17,29.29 37.94,30.25 C36.72,31.2 35.34,31.61 33.81,31.61 C32.52,31.61 31.28,31.3 30.21,30.56 C27.88,28.96 27.15,25.95 27.14,23.27 L27.14,22.34 L42.26,22.34 L42.26,22.35 Z M27.16,20.21 C27.31,18.08 27.9,15.75 29.63,14.34 C30.63,13.53 31.89,13.14 33.17,13.14 C34.24,13.14 35.27,13.56 36.07,14.26 C37.7,15.69 38.26,18.12 38.44,20.2 L38.46,20.49 L27.14,20.49 L27.16,20.21 Z M194.35,33.14 L198.16,33.14 L198.16,0.37 L194.35,0.37 L194.35,33.14 Z M69.38,33.14 L73.18,33.14 L73.18,0.37 L69.38,0.37 L69.38,33.14 Z" id="Shape"></path>
        </g>
    </g>
</svg>